<?xml version="1.0" encoding="utf-8"?>
<!-- Generator: Adobe Illustrator 19.1.0, SVG Export Plug-In . SVG Version: 6.00 Build 0)  -->
<svg version="1.1" id="Layer_1" xmlns="http://www.w3.org/2000/svg" xmlns:xlink="http://www.w3.org/1999/xlink" x="0px" y="0px"
	 viewBox="0 0 200 200" style="enable-background:new 0 0 200 200;" xml:space="preserve">
<defs>
	<style>
		.background{
			display:none;
			fill:none;
			stroke:#424242;
			stroke-width:0;
			stroke-miterlimit:10;}
		.line{
			fill:none;
			stroke:#91b8cf;
			stroke-width:2;
			stroke-linecap:round;
			stroke-miterlimit:10;

			/*animation */
			stroke-dasharray: 1200;
			stroke-dashoffset: 0;
			-webkit-animation: line 3s ease-in-out forwards;
			-o-animation: line 3s ease-in-out forwards;
			-moz-animation: line 3s ease-in-out forwards;
			animation: line 3s ease-in-out forwards;
			}
		.inner-fill{
			fill:#fee1cc;
			}
		@-webkit-keyframes line {
			from{
				stroke-dashoffset: 1200;
			}
			to{
				stroke-dashoffset: 0;
			}
		}
	</style>
</defs>
<path class="background" d="M13.648,190.259c-10.818,0-19.588-8.624-19.588-19.261l0.112-7.457c0,0-0.011-89.558-0.011-97.238l0.248-34.258
	c0-9.033,3.126-19.785,9.566-26.28s16.195-8.73,25.452-8.73l32.657,0.007c9.248,0.01,108.552,0.463,108.552,0.463
	c19.598,0,35.501,15.46,35.501,34.542s0.094,123.562,0.094,142.644c0,18.066-16.535,34.67-35.049,34.67
	c-19.064,0-34.556-17.097-34.556-35.654l-0.605-11.25c0-19.426-16.872-36.391-36.298-36.391s-37.758,17.743-37.758,37.168
	l-0.15,9.379v3c0,19.598-13.655,36.414-33.588,36.414l-12.704,0.157c-23.288,0-42.104-18.879-42.104-42.167l-0.278-15.478
	c0,0,0.004-99.558,0.004-107.238l0.255-34.258c0-18.066,16.508-35.01,35.022-35.01l32.658,0.007
	c9.248,0.01,108.552,0.463,108.552,0.463c19.598,0,35.5,15.46,35.5,34.542s-15.88,34.534-35.477,34.534l-6.16,0.588
	c-19.426,0-35.172,15.678-35.172,35.104s15.749,35.999,35.175,35.999l6.165-0.594c24.451,0,35.485,17.93,35.485,37.013
	c0,18.066-16.504,34.67-35.018,34.67c-19.064,0-112.941-0.333-132.874-0.333L13.648,190.259z"/>
<path class="line" d="M30.637,136.054l0.237-83.87c0-6.162,2.132-13.496,6.526-17.926s11.047-5.955,17.362-5.955l86.773,0.321
	c13.368,0,24.216,10.546,24.216,23.562s0.064,82.023,0.064,95.039c0,12.323-11.279,23.65-23.908,23.65
	c-13.004,0-23.572-11.663-23.572-24.321l-0.412-12.233c0-13.251-11.509-24.823-24.76-24.823s-25.756,12.103-25.756,25.354
	l-0.102,11.173c0,13.368-13.131,24.946-26.802,24.946s-26.674-12.878-26.674-28.763l-0.013-95.209
	C13.638,32.315,26.601,11.152,50.209,11.25s75.635,0.321,75.635,0.321c13.368,0,24.216,10.546,24.216,23.562
	s-10.832,23.557-24.2,23.557l-6.931,0.401c-13.251,0-23.992,10.695-23.992,23.946s10.743,24.556,23.994,24.556l6.934-0.405
	c16.679,0,24.205,12.231,24.205,25.247c0,12.323-11.258,23.65-23.887,23.65c-13.004,0-66.126-0.227-79.723-0.227
	C46.459,155.857,30.637,154.827,30.637,136.054z"/>
<g>
	<path class="inner-fill" d="M125.99,111.687l-7.06,0.405c-3.161,0-6.202-0.527-9.046-1.501c7.455,5.415,12.51,14.176,12.538,23.65
		l0.413,12.312c0,1.722,0.237,3.409,0.678,5.028c1.019,0.001,1.915,0.002,2.67,0.002c9.965,0,19.387-9.307,19.387-19.15
		C145.57,122.434,140.422,111.75,125.99,111.687z"/>
	<path class="inner-fill" d="M90.437,83.036c0-15.64,12.707-28.372,28.355-28.445l7.066-0.401c10.862,0,19.7-8.549,19.7-19.057
		c0-0.547-0.023-1.088-0.071-1.624c-1.277-0.252-2.6-0.385-3.953-0.385l-86.79-0.32c-3.562,0-10.16,0.601-14.149,4.624
		c-3.123,3.148-5.221,9.079-5.221,14.757l-0.237,83.872c0.001,13.519,9.848,15.126,11.524,15.301
		c3.264,0.001,8.69,0.014,15.219,0.033c0.598-1.739,0.924-3.544,0.924-5.365l0.103-11.215c0-15.583,14.421-29.812,30.256-29.812
		c3.127,0,6.179,0.552,9.057,1.56C95.084,101.271,90.437,92.696,90.437,83.036z"/>
</g>
</svg>
